<svg version="1.1" xmlns="http://www.w3.org/2000/svg" xmlns:xlink="http://www.w3.org/1999/xlink" width="400pt" height="400" viewBox="0,0,256,256"><g fill="#139617" fill-rule="nonzero" stroke="none" stroke-width="1" stroke-linecap="butt" stroke-linejoin="miter" stroke-miterlimit="10" stroke-dasharray="" stroke-dashoffset="0" font-family="none" font-weight="none" font-size="none" text-anchor="none" style="mix-blend-mode: normal"><g transform="translate(0.04461,0.02016) scale(0.5,0.5)"><g transform="translate(0,512) scale(0.1,-0.1)"><path d="M549,4833c-55,-34 -59,-52 -59,-291v-221l34,-35c18,-20 41,-36 50,-36c15,0 16,-11 14,-82l-3,-83l-48,-7c-143,-20 -262,-142 -287,-294c-6,-35 -10,-499 -10,-1147v-1088l-61,-72c-109,-129 -179,-312 -179,-467c0,-289 200,-567 490,-683c152,-60 73,-58 1815,-55l1590,3l47,22c66,30 143,106 173,168c15,32 27,81 31,124c4,42 11,71 18,71c6,0 145,-25 309,-54c310,-56 328,-57 383,-21c34,22 50,59 64,152c12,77 11,85 -9,125c-25,53 -57,73 -147,93c-168,39 -172,34 54,76c114,21 217,46 235,56c18,10 41,36 51,57c17,35 18,46 7,115c-14,93 -36,139 -80,168c-45,30 -63,29 -286,-12c-104,-19 -190,-33 -192,-31c-2,2 31,26 74,54c103,68 130,94 144,141c14,46 6,73 -47,168c-38,68 -80,103 -125,103c-14,0 -28,2 -30,5c-3,2 0,44 7,92c7,49 13,130 13,181c1,98 -11,138 -48,164c-19,14 -19,15 0,83c33,120 20,309 -28,381c-21,33 -114,65 -205,71l-76,6l-7,46c-16,111 -105,230 -212,284c-60,31 -162,51 -213,42l-37,-6l-6,118c-5,126 -24,205 -57,240c-33,37 -142,65 -250,65c-109,1 -196,-18 -281,-62l-57,-29l-17,42c-41,102 -139,233 -196,263c-33,17 -72,18 -102,3c-12,-6 -107,-96 -212,-200l-190,-189l-45,30c-130,86 -304,83 -430,-8c-53,-38 -55,-39 -88,-25c-46,19 -148,27 -199,15l-41,-9l-4,181c-3,174 -4,183 -32,243c-49,107 -153,186 -265,202l-46,6l-3,76l-3,77l35,20c66,39 71,55 74,256c5,229 0,257 -44,301l-35,35h-347c-303,0 -350,-3 -373,-17zM1198,4548l-3,-153l-277,-3l-278,-2v155v155h280h281zM1090,4165v-75h-175h-175v75v75h175h175zM1278,3930c60,-13 118,-60 143,-114c14,-31 19,-65 19,-138v-98h-79c-96,0 -131,-20 -131,-76c0,-59 26,-74 125,-74h85v-31c0,-20 -13,-49 -36,-80c-48,-66 -74,-144 -74,-224c0,-66 0,-67 -48,-113c-27,-26 -61,-74 -77,-107c-27,-54 -30,-70 -30,-157c0,-54 -3,-98 -6,-98c-3,0 -24,-16 -46,-35l-41,-35h-346h-346v440v440h260c247,0 261,1 280,20c30,30 27,83 -6,109c-25,20 -39,21 -282,21h-255l5,103c7,156 49,220 163,248c48,11 668,10 723,-1zM2934,3560c51,-97 55,-131 19,-177c-16,-21 -36,-49 -44,-62c-14,-23 -20,-24 -98,-22c-74,2 -86,0 -107,-20c-34,-31 -32,-81 2,-108c20,-15 41,-21 80,-21c30,0 54,-4 54,-9c0,-30 -22,-58 -53,-69l-36,-13l-63,64c-43,44 -80,71 -119,87c-52,21 -57,26 -71,69l-14,46l180,183l181,182l27,-32c15,-18 43,-62 62,-98zM3560,3460c38,-10 53,-65 47,-181c-4,-106 -15,-134 -92,-248c-34,-50 -45,-59 -77,-64c-20,-3 -63,-17 -95,-33c-32,-15 -61,-28 -65,-28c-4,-1 -19,14 -33,33l-25,35l95,97c79,80 95,101 95,128c0,41 -31,71 -73,71c-28,0 -47,-14 -135,-103l-104,-104l-46,15c-26,8 -52,17 -59,18c-17,4 1,66 42,140c52,92 146,173 246,210c81,30 198,36 279,14zM2240,3369c72,-36 130,-124 130,-198c0,-44 25,-68 83,-81c66,-15 126,-55 151,-101l19,-34l-27,-39c-14,-21 -33,-63 -43,-92l-17,-54h-223c-241,0 -261,-4 -301,-55l-19,-24l-54,28c-85,46 -163,65 -269,65c-106,0 -193,-20 -235,-57c-18,-15 -32,-44 -44,-90c-19,-74 -26,-75 -56,-4c-42,101 7,232 107,283c42,22 49,44 42,132c-8,97 4,140 58,198c72,78 177,93 279,40c28,-14 59,-26 70,-26c11,0 45,24 78,54c91,84 179,102 271,55zM3908,3045c29,-9 69,-30 89,-48c41,-36 83,-117 83,-163c0,-27 -5,-33 -52,-52c-29,-12 -77,-40 -107,-63c-54,-41 -77,-44 -87,-12c-3,10 -19,46 -36,81c-30,62 -80,112 -141,144l-28,14l37,38c66,68 148,88 242,61zM3012,2936c20,-7 50,-24 66,-37c33,-27 82,-96 82,-116c0,-10 -49,-13 -235,-13c-264,0 -249,-6 -193,77c59,87 178,125 280,89zM3573,2807c47,-20 105,-89 112,-134c17,-98 26,-109 112,-132c80,-22 143,-101 143,-179v-40l-55,-4c-34,-3 -62,-12 -75,-23c-26,-24 -27,-78 0,-105c19,-19 33,-20 325,-20h305v-53c0,-68 -17,-204 -36,-288l-15,-65l-200,-118c-110,-65 -201,-117 -203,-115c-2,2 -13,24 -25,47c-72,142 -238,220 -386,183c-75,-19 -888,-331 -907,-348c-24,-22 -23,-78 2,-103c25,-25 56,-25 122,0c29,11 56,20 60,20c3,0 14,-43 23,-95c20,-110 41,-145 86,-145c34,0 79,39 79,67c0,10 -9,65 -20,122c-11,57 -19,106 -16,108c2,2 139,56 305,119c325,123 359,131 429,95c49,-25 78,-58 95,-106c8,-22 49,-231 92,-465c86,-472 86,-474 25,-544c-42,-48 -87,-66 -162,-66h-64l-23,136c-28,155 -43,184 -96,184c-39,0 -75,-31 -75,-65c0,-12 9,-70 20,-130c11,-60 20,-112 20,-117c0,-4 -58,-8 -128,-8h-128l-16,91c-18,101 -36,136 -74,145c-32,8 -76,-22 -84,-57c-4,-13 0,-55 7,-94c7,-38 13,-73 13,-77c0,-5 -135,-8 -299,-8h-299l-23,127c-25,139 -44,173 -94,173c-31,0 -75,-41 -75,-69c0,-11 9,-67 20,-123c11,-57 20,-104 20,-105c0,-2 -207,-3 -460,-3c-506,0 -499,-1 -556,61c-79,85 -70,226 18,292c28,21 314,137 338,137c4,0 13,-30 20,-66c16,-81 37,-106 87,-102c25,2 42,11 55,29c19,25 19,29 4,109c-9,46 -13,87 -9,91c5,3 102,42 217,85c115,43 219,87 232,97c48,37 18,127 -43,127c-12,0 -68,-18 -124,-40c-102,-39 -119,-41 -119,-15c0,7 -20,53 -45,102c-65,130 -196,266 -309,319c-19,10 -37,27 -40,39c-15,61 -94,113 -213,141c-51,12 -100,15 -199,11l-132,-4l-6,37c-8,50 -35,73 -83,68l-38,-3l-7,55c-3,30 -6,83 -7,118l-1,62h1235c1222,0 1235,0 1255,20c25,25 26,81 2,103c-10,9 -32,19 -48,23l-30,6l29,81c21,60 30,108 34,179c6,94 5,98 -21,133c-15,19 -38,38 -51,41c-36,9 -31,22 18,44c49,23 115,25 160,7zM4388,2657c14,-15 17,-36 17,-125c0,-91 -3,-115 -24,-159l-23,-53h-101h-100l42,45c48,52 52,85 16,120c-31,32 -66,32 -105,-2c-26,-21 -33,-24 -41,-12c-5,8 -9,19 -9,25c0,6 -14,30 -31,54c-34,47 -35,44 36,82c73,39 116,48 213,45c72,-2 96,-7 110,-20zM1762,2625c75,-15 137,-48 197,-103c31,-29 46,-54 66,-115c14,-42 25,-80 25,-82c0,-3 -23,-5 -52,-5c-50,0 -53,2 -124,70c-61,60 -77,70 -107,70c-26,0 -41,-7 -56,-26c-25,-32 -26,-46 -6,-84l16,-30h-85h-84l-11,32c-24,70 -26,218 -2,256c18,29 128,37 223,17zM3317,2568c-6,-62 -38,-162 -68,-212l-21,-36h-77h-77l-57,55c-41,40 -64,55 -85,55c-40,0 -72,-33 -72,-75c0,-32 -3,-35 -28,-35c-16,0 -37,9 -47,20c-11,12 -31,20 -52,20c-20,0 -41,-8 -53,-20c-13,-13 -33,-20 -56,-20c-32,0 -36,2 -31,22c11,41 -28,87 -76,88c-21,0 -42,-14 -84,-55l-55,-56l-76,3c-74,3 -77,4 -94,35c-29,48 -57,137 -67,203l-8,60h595h595zM1276,2449c22,-23 74,-61 101,-73c1,-1 4,-13 8,-29l7,-27h-131c-94,0 -131,3 -131,12c0,39 80,148 109,148c4,0 20,-14 37,-31zM986,2378c-3,-13 -6,-31 -6,-40c0,-10 -12,-19 -32,-24c-44,-9 -76,-32 -94,-65c-22,-44 -18,-208 11,-375l5,-31l-112,-6c-118,-6 -184,-22 -249,-63c-40,-25 -79,-69 -79,-90c0,-7 -9,-18 -20,-24c-20,-11 -20,-8 -20,358c0,203 3,372 7,375c3,4 139,7 301,7h294zM4599,1664c12,-19 21,-39 21,-43c0,-4 -110,-81 -245,-171c-171,-114 -247,-170 -251,-186c-9,-37 0,-66 27,-86l26,-20l383,71c211,39 386,69 388,66c5,-5 22,-79 18,-82c-1,-1 -173,-34 -381,-72c-354,-65 -382,-72 -402,-96c-13,-14 -23,-35 -23,-45c0,-10 10,-30 23,-44c19,-23 58,-34 305,-91c156,-36 284,-65 285,-65c9,0 -8,-83 -18,-86c-15,-6 -626,103 -636,113c-14,16 -102,526 -93,540c6,10 538,331 551,333c0,0 10,-16 22,-36zM994,1662l58,-21l57,20c103,38 285,37 388,-2l28,-11l-32,-13c-18,-8 -53,-17 -78,-20c-101,-16 -125,-81 -57,-157l37,-41l-39,7c-66,12 -140,44 -212,91c-38,25 -79,45 -92,45c-12,0 -49,-18 -81,-40c-69,-47 -156,-85 -221,-95l-45,-7l43,44c73,76 54,127 -60,153c-94,21 -108,29 -80,44c70,37 286,39 386,3zM533,1506c30,-13 37,-21 32,-34c-4,-9 -10,-38 -12,-64c-5,-45 -3,-50 34,-87c30,-31 49,-41 88,-46c71,-11 183,16 292,71l92,46l28,-20c83,-59 270,-112 344,-98c53,10 101,46 117,88c13,33 13,43 0,82l-15,44l45,21l44,22l65,-42c84,-55 166,-147 208,-234c57,-118 77,-98 -193,-199c-310,-117 -351,-136 -406,-186c-65,-60 -98,-134 -104,-229c-4,-72 6,-119 43,-203c7,-17 -9,-18 -256,-18c-306,0 -361,8 -489,71c-110,54 -230,170 -278,270c-105,217 -71,447 92,626c55,60 171,148 185,140c3,-2 23,-11 44,-21z"></path><path d="M2734,3528c-80,-73 -89,-125 -30,-163c35,-23 61,-12 124,48c59,58 69,100 32,137c-33,33 -74,26 -126,-22z"></path><path d="M1747,3196c-92,-25 -166,-114 -170,-205c-1,-36 3,-47 26,-67c16,-13 37,-24 47,-24c29,0 66,41 79,88c10,35 19,46 46,58c36,15 54,12 97,-18c38,-26 86,-20 111,14c63,85 -100,191 -236,154z"></path><path d="M2135,3011c-117,-30 -195,-151 -135,-211c28,-28 75,-26 105,5c14,13 25,28 25,33c0,14 48,32 67,25c10,-3 32,-22 49,-41c71,-82 170,-11 120,86c-39,76 -148,124 -231,103z"></path><path d="M2241,2554c-24,-30 -26,-43 -10,-77c15,-33 49,-47 115,-47c108,0 156,57 103,124c-19,24 -26,26 -104,26c-78,0 -85,-2 -104,-26z"></path><path d="M3010,2560c-25,-25 -26,-71 -1,-101c17,-22 27,-24 100,-24c69,0 83,3 102,22c30,30 30,80 0,105c-35,27 -173,26 -201,-2z"></path></g></g></g></svg>