<svg version="1.1" xmlns="http://www.w3.org/2000/svg" xmlns:xlink="http://www.w3.org/1999/xlink" width="512.000000pt" height="512.000000pt" viewBox="0,0,256,256"><g fill="#139617" fill-rule="nonzero" stroke="none" stroke-width="1" stroke-linecap="butt" stroke-linejoin="miter" stroke-miterlimit="10" stroke-dasharray="" stroke-dashoffset="0" font-family="none" font-weight="none" font-size="none" text-anchor="none" style="mix-blend-mode: normal"><g transform="translate(0,0.00011) scale(0.5,0.5)"><g transform="translate(0,512) scale(0.1,-0.1)"><path d="M1535,5108c-86,-16 -204,-79 -275,-145c-121,-113 -181,-249 -182,-413c-3,-277 175,-502 450,-570l42,-11v-84v-85h-40h-40v-250v-250h40h40v-197c0,-348 46,-514 202,-726c47,-63 183,-197 200,-197c4,0 8,-48 8,-107v-108l-313,-69c-171,-38 -350,-79 -396,-93c-359,-103 -633,-379 -738,-743l-27,-95l-4,-482l-3,-483h2061h2061l-3,483l-4,482l-27,95c-105,364 -379,640 -738,743c-46,14 -225,55 -396,93l-313,69v108c0,59 4,107 8,107c17,0 153,134 200,197c156,212 202,378 202,726v197h40h40v250v250h-40h-40v85v84l43,11c215,53 370,202 433,415c24,84 22,229 -5,315c-76,240 -307,411 -555,410c-138,-1 -279,-58 -384,-156l-67,-62l-63,59c-66,62 -161,116 -247,140c-27,8 -93,14 -145,14c-52,0 -117,-6 -145,-14c-86,-24 -181,-78 -247,-140l-63,-59l-67,62c-136,127 -319,179 -503,144zM1784,4930c91,-31 164,-89 218,-172l30,-48h74h73l36,55c47,71 94,111 175,149c60,29 73,31 170,31c97,0 110,-2 170,-31c81,-38 128,-78 175,-149l36,-55h74h73l24,38c85,139 214,207 376,200c72,-2 98,-8 153,-34c256,-122 317,-454 121,-657c-82,-85 -186,-127 -309,-127h-63v-165v-165h-830h-830v165v165h-63c-123,0 -227,42 -309,127c-213,220 -125,569 171,678c56,21 188,18 255,-5zM3470,3550v-80h-910h-910v80v80h910h910zM3390,3143c0,-275 -25,-409 -101,-551c-149,-279 -418,-442 -729,-442c-311,0 -580,163 -729,442c-76,142 -101,276 -101,551v157h830h830zM2252,2034c100,-35 181,-47 308,-47c148,0 259,22 393,78c15,6 17,1 17,-39v-46h-68c-127,0 -227,-78 -252,-197l-11,-53h-79h-79l-11,53c-25,119 -125,197 -252,197h-68v46c0,40 2,45 18,39c9,-4 47,-18 84,-31zM2284,1791c25,-23 26,-30 26,-123v-98h85h86l-3,-97l-3,-97l-412,-165l-413,-165v-438v-438h-80h-80l-2,163l-3,162h-80h-80l-3,-162l-2,-163h-331h-331l5,378c4,351 6,382 26,456c78,278 270,499 528,606c51,22 212,63 468,121c355,80 398,88 482,86c81,-2 94,-5 117,-26zM3418,1734c213,-47 421,-99 463,-115c265,-102 473,-334 550,-614c20,-74 22,-108 26,-457l5,-378h-331h-331l-2,163l-3,162h-80h-80l-3,-162l-2,-163h-905h-905v383v383l410,164l410,164v153v153h85h85v98c0,89 2,100 23,119c31,28 42,31 125,32c56,1 158,-18 460,-85z"></path><path d="M2034,815c-59,-25 -66,-102 -12,-139c65,-46 145,23 114,98c-18,42 -59,59 -102,41z"></path><path d="M2034,485c-59,-25 -66,-102 -12,-139c65,-46 145,23 114,98c-18,42 -59,59 -102,41z"></path></g></g></g></svg>