<svg version="1.1" xmlns="http://www.w3.org/2000/svg" xmlns:xlink="http://www.w3.org/1999/xlink" width="512.000000pt" height="512.000000pt" viewBox="0,0,256,256"><g fill="#139617" fill-rule="nonzero" stroke="none" stroke-width="1" stroke-linecap="butt" stroke-linejoin="miter" stroke-miterlimit="10" stroke-dasharray="" stroke-dashoffset="0" font-family="none" font-weight="none" font-size="none" text-anchor="none" style="mix-blend-mode: normal"><g transform="translate(0.033,-0.02051) scale(0.5,0.5)"><g transform="translate(0,512) scale(0.1,-0.1)"><path d="M490,5113c-33,-12 -55,-43 -110,-153l-58,-116l-133,-18c-120,-17 -137,-22 -161,-47c-49,-48 -40,-69 76,-188l105,-106l-24,-133c-26,-143 -24,-168 17,-196c37,-26 64,-19 190,46l120,63l121,-63c67,-34 135,-62 150,-62c36,0 77,41 77,76c0,15 -9,81 -20,147l-21,120l101,102c89,91 100,106 100,137c0,67 -21,79 -176,103l-139,21l-60,117c-33,64 -67,123 -75,131c-18,17 -59,27 -80,19zM594,4701c8,-7 47,-18 86,-24c38,-6 70,-13 70,-17c0,-4 -18,-21 -40,-39c-62,-50 -75,-82 -61,-157c6,-34 11,-66 11,-72c0,-6 -30,5 -66,24c-36,19 -72,34 -80,34c-8,0 -45,-15 -83,-34l-68,-35l8,42c4,23 8,62 9,87c0,42 -4,50 -50,95c-27,27 -50,52 -50,56c0,4 26,10 57,14c86,11 107,25 143,102l32,68l33,-66c18,-36 40,-71 49,-78z"></path><path d="M1804,5101c-63,-29 -89,-72 -89,-151c0,-77 24,-119 85,-150c163,-83 326,121 207,257c-56,63 -127,79 -203,44z"></path><path d="M4209,5091c-27,-27 -29,-35 -29,-101c0,-62 3,-74 25,-95c37,-38 88,-37 123,1c19,21 22,36 22,97c-1,75 -9,95 -47,115c-35,19 -63,14 -94,-17z"></path><path d="M3952,4837c-28,-30 -30,-89 -3,-116c24,-24 78,-35 139,-28c83,9 121,89 67,142c-21,22 -33,25 -103,25c-69,0 -81,-3 -100,-23z"></path><path d="M4380,4840c-42,-42 -32,-111 20,-137c34,-17 125,-16 159,2c40,20 57,66 41,105c-17,42 -37,50 -124,50c-62,0 -80,-4 -96,-20z"></path><path d="M4222,4683c-37,-15 -57,-146 -30,-196c28,-53 92,-64 133,-22c22,21 25,33 25,100c0,67 -3,79 -25,100c-23,24 -69,32 -103,18z"></path><path d="M1935,4587c-35,-30 -36,-47 -5,-212c31,-169 39,-499 16,-675c-35,-264 -81,-426 -207,-732c-49,-119 -89,-228 -89,-243c0,-61 95,-100 138,-57c18,18 65,123 159,357c87,215 149,468 174,703c15,143 6,501 -15,632c-33,210 -45,236 -107,246c-28,5 -41,1 -64,-19z"></path><path d="M2562,4421c-162,-56 -223,-256 -119,-393c71,-93 204,-125 312,-74c121,56 177,202 125,324c-29,68 -93,126 -161,146c-67,20 -91,20 -157,-3zM2708,4234c48,-54 10,-134 -63,-134c-69,0 -108,73 -69,128c33,48 92,50 132,6z"></path><path d="M3182,4157c-21,-23 -22,-30 -22,-273v-251l26,-24l26,-24h243h243l26,24l26,24v252c0,250 0,252 -23,273c-23,21 -30,22 -273,22c-249,0 -251,0 -272,-23zM3580,3885v-125h-125h-125v125v125h125h125z"></path><path d="M4572,3915c-39,-17 -52,-48 -52,-126c0,-54 3,-64 29,-90c38,-37 82,-39 116,-4c22,21 25,33 25,103c0,69 -3,81 -22,99c-32,29 -58,34 -96,18z"></path><path d="M1127,3900c-50,-13 -126,-52 -158,-82c-140,-130 -142,-361 -7,-678c180,-424 644,-998 1113,-1377c261,-211 586,-412 783,-483c41,-15 59,-26 50,-31c-7,-4 -139,-55 -293,-114c-209,-79 -287,-105 -309,-101c-40,8 -280,125 -380,186c-574,346 -988,942 -1116,1608c-22,113 -35,137 -80,147c-55,12 -99,-28 -100,-89c-1,-105 105,-466 195,-666c234,-521 659,-971 1159,-1227l109,-55l-498,-189l-498,-188l-61,55c-177,159 -300,359 -362,589c-23,86 -38,210 -65,545c-6,80 -18,157 -25,172c-25,49 -103,52 -138,5l-20,-28l23,-277c32,-395 60,-519 157,-715c71,-143 131,-226 245,-343l69,-70l-351,-133c-193,-73 -352,-131 -355,-129c-2,3 26,123 61,269c36,145 63,274 60,287c-15,63 -105,86 -143,37c-13,-16 -48,-140 -101,-358c-105,-428 -101,-399 -63,-437c17,-16 39,-30 49,-30c17,0 237,82 1288,480c99,37 587,221 1085,409c498,188 924,351 948,363c53,26 108,86 135,147c31,69 36,229 9,341c-35,146 -59,200 -98,216c-37,15 -58,11 -91,-19c-30,-27 -29,-62 3,-162c36,-108 44,-264 17,-314c-24,-47 -58,-69 -122,-81c-177,-33 -508,107 -888,377c-508,360 -1043,980 -1244,1443c-49,113 -89,263 -89,333c0,141 77,211 224,205c70,-3 106,25 106,82c0,59 -33,82 -122,86c-40,2 -90,-1 -111,-6z"></path><path d="M4249,3771c-45,-46 -39,-74 29,-143c69,-68 97,-74 143,-29c40,41 38,77 -7,129c-65,77 -118,90 -165,43z"></path><path d="M4822,3746c-48,-47 -56,-59 -56,-91c0,-29 7,-43 28,-61c45,-40 81,-32 143,29c45,46 53,60 53,91c0,48 -36,86 -80,86c-25,0 -44,-12 -88,-54z"></path><path d="M2934,3478c-42,-33 -824,-735 -856,-769c-19,-20 -28,-40 -28,-62c0,-58 64,-102 113,-80c22,10 840,740 885,789c31,35 29,79 -7,115c-35,35 -68,37 -107,7z"></path><path d="M4465,3481c-370,-171 -1776,-848 -1792,-864c-51,-47 -15,-137 55,-137c19,0 102,34 209,85c98,46 500,237 893,424c393,187 728,351 745,364c40,32 41,89 1,123c-33,29 -58,30 -111,5z"></path><path d="M4894,3476c-39,-33 -39,-89 0,-122c23,-21 38,-24 101,-24c70,0 75,2 99,31c34,40 33,74 -3,110c-27,27 -35,29 -100,29c-59,0 -74,-4 -97,-24z"></path><path d="M4809,3245c-32,-17 -52,-66 -40,-98c5,-12 31,-43 59,-70c60,-55 98,-62 137,-22c38,37 34,85 -12,136c-37,40 -81,69 -105,69c-7,-1 -25,-7 -39,-15z"></path><path d="M4570,3147c-38,-19 -51,-54 -48,-130c4,-76 21,-102 74,-113c24,-4 37,0 62,21c31,26 32,29 32,103c-1,80 -8,100 -47,120c-27,15 -42,15 -73,-1z"></path><path d="M3150,2304c-103,-7 -305,-35 -470,-63c-182,-32 -200,-42 -200,-108c0,-40 37,-83 71,-83c12,0 87,11 168,25c288,48 389,58 596,58c300,0 527,-36 816,-129c148,-48 171,-48 203,-2c23,33 20,75 -8,103c-52,51 -455,158 -699,185c-109,11 -392,20 -477,14z"></path><path d="M4613,2036c-225,-74 -231,-396 -9,-481c55,-21 154,-17 203,8c70,37 128,120 139,200c14,98 -49,212 -140,259c-50,26 -138,32 -193,14zM4744,1858c40,-35 43,-78 11,-116c-34,-41 -84,-44 -120,-7c-75,74 31,192 109,123z"></path><path d="M3866,1419c-54,-63 -20,-121 84,-145c219,-50 428,-163 569,-307l43,-45l-53,-16c-119,-34 -241,-133 -297,-240c-24,-45 -27,-62 -27,-146c0,-113 22,-167 95,-240c71,-72 127,-94 235,-95c77,0 98,4 146,26c109,51 176,146 203,286l13,68l29,-60c27,-55 29,-69 29,-170c0,-99 -3,-116 -27,-169c-16,-32 -28,-71 -28,-85c0,-33 31,-68 67,-77c85,-22 163,139 163,333c0,103 -18,181 -63,272c-33,68 -129,179 -179,209c-16,9 -55,52 -85,96c-179,255 -446,440 -744,515c-116,29 -141,28 -173,-10zM4664,720c30,-37 40,-80 34,-163c-8,-134 -84,-214 -193,-205c-131,11 -198,147 -126,260c48,75 148,137 223,138c28,0 42,-7 62,-30z"></path></g></g></g></svg>