<svg version="1.1" xmlns="http://www.w3.org/2000/svg" xmlns:xlink="http://www.w3.org/1999/xlink" width="512.000000pt" height="512.000000pt" viewBox="0,0,256,256"><g fill="#139617" fill-rule="nonzero" stroke="none" stroke-width="1" stroke-linecap="butt" stroke-linejoin="miter" stroke-miterlimit="10" stroke-dasharray="" stroke-dashoffset="0" font-family="none" font-weight="none" font-size="none" text-anchor="none" style="mix-blend-mode: normal"><g transform="translate(0.09303,-0.04068) scale(0.5,0.5)"><g transform="translate(0,512) scale(0.1,-0.1)"><path d="M2505,4345c-24,-23 -25,-28 -25,-176v-151l-59,-63c-106,-114 -106,-112 -109,-462l-3,-303h-235h-234v118l1,117l43,26c68,42 97,101 104,208c5,103 -7,152 -48,181c-25,18 -44,20 -174,20c-154,0 -185,-7 -211,-47c-21,-32 -30,-135 -17,-205c14,-72 49,-126 107,-162l45,-29v-113v-114h-150c-166,0 -229,-10 -310,-49c-124,-60 -234,-204 -234,-307c0,-69 42,-138 103,-171l44,-23h504h503v-101c0,-117 11,-164 51,-213c46,-54 101,-76 197,-76h82v-507v-508l-175,-139c-96,-76 -184,-149 -196,-162c-42,-45 -24,-140 33,-170c41,-21 786,-21 827,1c38,19 65,77 57,120c-8,40 -40,70 -249,235l-146,115l-1,508v507h80c121,0 190,37 231,125c16,34 19,66 19,207v167l-26,20c-27,21 -32,21 -890,21c-474,0 -869,3 -878,6c-45,17 2,120 82,181c87,66 24,64 1328,61l1179,-3l50,-23c60,-27 98,-61 136,-121c33,-51 35,-64 13,-85c-13,-14 -61,-16 -375,-16h-360l-24,-25c-14,-13 -25,-36 -25,-50c0,-14 11,-37 25,-50l24,-25h373c340,0 377,2 413,19c74,33 124,121 112,196c-15,89 -120,227 -215,278c-83,45 -150,57 -324,57h-158v115v114l28,15c39,21 89,75 106,118c11,25 16,70 16,139v101l-34,34l-34,34h-154c-123,0 -158,-3 -176,-16c-39,-27 -52,-67 -52,-161c0,-71 5,-98 24,-138c23,-51 69,-98 106,-110c19,-6 20,-15 20,-126v-119h-234h-235l-3,303l-3,302l-29,53c-16,29 -53,79 -83,111l-53,59v152c0,147 -1,152 -25,175c-13,14 -36,25 -50,25c-14,0 -37,-11 -50,-25zM2592,3843c46,-53 48,-68 48,-368v-285h-90h-90v269c0,216 3,277 15,312c28,79 82,112 117,72zM1840,3670c0,-51 -16,-85 -47,-99c-34,-16 -47,-14 -77,10c-22,18 -26,28 -26,75v54h75h75zM3420,3656c0,-47 -4,-57 -27,-76c-20,-16 -36,-20 -58,-16c-44,9 -65,40 -65,97v49h75h75zM2810,2540c0,-147 12,-140 -255,-140c-267,0 -255,-7 -255,140v100h255h255zM2682,1003l122,-98l-122,-3c-66,-1 -178,-1 -247,0l-126,3l118,97c65,53 122,97 126,97c4,1 62,-43 129,-96z"></path><path d="M163,3726c-60,-19 -99,-51 -130,-104l-28,-47l-3,-705c-2,-501 0,-722 8,-765c33,-169 161,-307 327,-351c37,-9 69,-18 70,-19c2,-1 -65,-203 -147,-451c-83,-247 -150,-457 -150,-467c0,-26 45,-67 74,-67c57,0 67,22 212,465c75,231 145,436 155,456c30,60 62,69 253,69c174,0 213,-7 248,-46c9,-11 91,-219 182,-464c170,-458 180,-480 233,-480c28,0 73,41 73,68c0,10 -73,214 -161,452c-89,239 -164,443 -166,453c-5,15 2,17 46,17c91,0 169,50 213,134c26,51 26,141 -1,194c-26,51 -91,108 -138,121c-24,7 -192,11 -455,11h-418v415c0,402 -1,416 -20,435c-28,28 -75,26 -105,-5l-25,-24v-428c0,-472 0,-471 63,-517c28,-20 43,-21 477,-26c423,-5 449,-6 469,-24c30,-27 28,-86 -3,-115l-23,-22l-464,3c-460,3 -464,3 -506,26c-66,35 -110,79 -140,140l-28,57l-3,704c-2,617 -1,707 13,727c32,49 84,55 125,14c17,-17 20,-34 20,-124c0,-89 3,-107 21,-130c26,-33 79,-36 109,-6c18,18 20,33 20,134c0,62 -5,128 -11,147c-39,114 -172,182 -286,145z"></path><path d="M4832,3730c-49,-11 -108,-55 -139,-102l-28,-42l-3,-693l-2,-693h-418c-263,0 -431,-4 -455,-11c-48,-13 -112,-70 -139,-122c-25,-51 -27,-140 -3,-191c23,-48 94,-109 143,-124c22,-7 58,-12 82,-12c36,0 42,-3 37,-17c-2,-10 -77,-214 -166,-453c-88,-238 -161,-442 -161,-452c0,-27 45,-68 73,-68c53,0 63,22 233,480c91,245 173,453 182,464c35,39 74,46 248,46c186,0 223,-9 251,-63c8,-17 78,-222 155,-456c146,-446 157,-471 211,-471c33,0 65,26 71,58c5,19 -35,151 -144,476c-82,247 -149,450 -147,451c1,1 33,10 70,19c131,35 230,121 296,256l36,75v745v745l-27,46c-30,51 -84,92 -143,108c-45,12 -65,12 -113,1zM4941,3561l30,-30l-3,-708l-3,-708l-24,-49c-29,-60 -85,-117 -143,-148c-43,-23 -45,-23 -509,-26l-467,-3l-21,27c-26,33 -27,75 -2,105l19,24l450,5c436,5 451,6 479,26c65,48 63,17 63,775c0,722 -1,702 45,727c33,18 55,14 86,-17z"></path></g></g></g></svg>